<?xml version="1.0" encoding="UTF-8" standalone="no"?>
<!-- Created with Inkscape (http://www.inkscape.org/) -->

<svg
   width="297mm"
   height="210mm"
   viewBox="0 0 297 210"
   version="1.1"
   id="svg19"
   inkscape:version="1.2.2 (b0a8486541, 2022-12-01)"
   sodipodi:docname="natec_official (editable).svg"
   inkscape:export-filename="natec_official_logo/natec_official_symbolOnSide.png"
   inkscape:export-xdpi="96"
   inkscape:export-ydpi="96"
   xmlns:inkscape="http://www.inkscape.org/namespaces/inkscape"
   xmlns:sodipodi="http://sodipodi.sourceforge.net/DTD/sodipodi-0.dtd"
   xmlns="http://www.w3.org/2000/svg"
   xmlns:svg="http://www.w3.org/2000/svg">
  <sodipodi:namedview
     id="namedview21"
     pagecolor="#ffffff"
     bordercolor="#000000"
     borderopacity="0.25"
     inkscape:showpageshadow="2"
     inkscape:pageopacity="0.0"
     inkscape:pagecheckerboard="0"
     inkscape:deskcolor="#d1d1d1"
     inkscape:document-units="mm"
     showgrid="false"
     inkscape:zoom="0.62162861"
     inkscape:cx="529.25492"
     inkscape:cy="398.1477"
     inkscape:window-width="1366"
     inkscape:window-height="704"
     inkscape:window-x="0"
     inkscape:window-y="0"
     inkscape:window-maximized="1"
     inkscape:current-layer="svg19" />
  <defs
     id="defs16" />
  <path
     id="rect4111"
     style="display:none;opacity:1;fill:#f2f2f2;stroke-width:0.264583"
     d="M 0.29647496,-0.31928071 H 297.64615 V 209.88145 H 0.29647496 Z"
     inkscape:label="bg" />
  <g
     inkscape:label="symbol on top"
     inkscape:groupmode="layer"
     id="layer1"
     style="display:none">
    <g
       id="g5521"
       transform="translate(0,-12.419826)">
      <g
         aria-label="NATEC"
         id="text127"
         style="font-size:66.7633px;font-family:'Lohit Tamil';-inkscape-font-specification:'Lohit Tamil';display:inline;fill:#1a1a1a;stroke-width:0.347725"
         inkscape:label="natec">
        <g
           id="g4555"
           inkscape:label="text"
           style="display:inline">
          <path
             d="M 82.337527,183.80415 H 69.385448 l -19.02754,-30.9114 h -0.20029 l 0.267053,30.9114 H 39.341963 v -47.26841 h 13.018844 l 18.960776,30.84464 h 0.20029 L 71.25482,136.53574 h 11.082707 z"
             style="font-family:'Avenir Next Cyr';-inkscape-font-specification:'Avenir Next Cyr'"
             id="path4455" />
          <path
             d="m 136.81644,183.80415 h -12.68503 l -3.67198,-9.28009 h -18.29314 l -3.471695,9.28009 H 86.276621 l 19.828699,-47.26841 h 11.08271 z m -19.49489,-18.42667 -5.87517,-16.22348 -6.00869,16.22348 z"
             style="font-family:'Avenir Next Cyr';-inkscape-font-specification:'Avenir Next Cyr'"
             id="path4457" />
          <path
             d="M 170.33166,146.28318 H 156.979 v 37.52097 h -11.41653 v -37.52097 h -13.35266 v -9.74744 h 38.12185 z"
             style="font-family:'Avenir Next Cyr';-inkscape-font-specification:'Avenir Next Cyr'"
             id="path4459" />
          <path
             d="m 208.52022,183.80415 h -32.98107 v -47.26841 h 31.77933 v 9.68068 H 186.5551 v 8.87952 h 19.62841 v 9.14657 H 186.5551 v 9.8142 h 21.96512 z"
             style="font-family:'Avenir Next Cyr';-inkscape-font-specification:'Avenir Next Cyr'"
             id="path4461" />
          <path
             d="m 257.65803,177.26135 q -6.74309,7.81131 -18.3599,7.81131 -11.01595,0 -18.22639,-6.94339 -7.21043,-7.01014 -7.21043,-18.02609 0,-11.14947 7.2772,-17.95932 7.34396,-6.87662 18.35991,-6.87662 5.14077,0 9.94773,1.86937 4.87372,1.80261 7.74454,5.07401 l -7.74454,7.74454 q -1.53556,-2.13642 -4.13933,-3.20464 -2.537,-1.13497 -5.40783,-1.13497 -5.94193,0 -9.8142,4.13932 -3.80551,4.07256 -3.80551,10.34831 0,6.40928 3.73875,10.48184 3.73874,4.0058 9.68068,4.0058 6.60956,0 10.01449,-4.80696 z"
             style="font-family:'Avenir Next Cyr';-inkscape-font-specification:'Avenir Next Cyr';display:inline"
             id="path4463" />
        </g>
      </g>
      <g
         id="g5389"
         inkscape:label="symbol"
         style="display:inline"
         transform="translate(-11.184711)">
        <g
           id="g4797"
           inkscape:label="DOWN"
           transform="translate(0,-2.1166667)">
          <g
             aria-label="U"
             id="text4559"
             style="font-size:50.8px;font-family:'Avenir Next Cyr';-inkscape-font-specification:'Avenir Next Cyr';opacity:1;fill:#1a1a1a;stroke-width:0.264583"
             inkscape:label="U">
            <path
               d="m 139.60274,92.512328 q 0,6.5024 -4.2672,10.515602 -4.2164,4.0132 -11.2268,4.0132 -7.0104,0 -11.176,-3.9624 -4.1656,-4.013202 -4.1656,-10.566402 v -22.4028 h 8.636 v 21.6916 q 0,3.2004 1.6764,5.334 1.6764,2.0828 5.08,2.0828 3.4544,0 5.08,-2.0828 1.6764,-2.1336 1.6764,-5.334 v -21.6916 h 8.6868 z"
               id="path4561" />
          </g>
          <g
             aria-label="U"
             id="text4559-6"
             style="font-size:50.8px;font-family:'Avenir Next Cyr';-inkscape-font-specification:'Avenir Next Cyr';fill:#1a1a1a;stroke-width:0.264583"
             inkscape:label="U"
             transform="translate(22.143417,12.874158)">
            <path
               id="path4561-2"
               d="m 108.76694,70.109407 v 22.402767 c 0,4.368796 1.38857,7.891336 4.16564,10.566796 2.77706,2.6416 6.50246,3.96203 11.17606,3.96203 4.67359,0 8.41577,-1.33772 11.2267,-4.01319 2.8448,-2.67546 4.26744,-6.180707 4.26744,-10.515636 V 78.23656 a 7.6552792,7.6552792 0 0 1 -4.29017,1.317749 7.6552792,7.6552792 0 0 1 -4.39664,-1.39113 v 13.637927 c 0,2.133598 -0.55878,3.911643 -1.67638,5.334042 -1.08373,1.388532 -2.77686,2.08256 -5.07979,2.08256 -2.26907,0 -3.96271,-0.694028 -5.08031,-2.08256 -1.1176,-1.422399 -1.67639,-3.200444 -1.67639,-5.334042 V 70.109407 Z" />
          </g>
        </g>
        <g
           id="g4791"
           inkscape:label="UP"
           transform="translate(0,2.1166667)">
          <g
             aria-label="U"
             id="text4559-61"
             style="font-size:50.8px;font-family:'Avenir Next Cyr';-inkscape-font-specification:'Avenir Next Cyr';fill:#0054a0;fill-opacity:1;stroke-width:0.264583"
             inkscape:label="U"
             transform="rotate(180,157.40662,83.600169)">
            <path
               d="m 139.60274,92.512328 q 0,6.5024 -4.2672,10.515602 -4.2164,4.0132 -11.2268,4.0132 -7.0104,0 -11.176,-3.9624 -4.1656,-4.013202 -4.1656,-10.566402 v -22.4028 h 8.636 v 21.6916 q 0,3.2004 1.6764,5.334 1.6764,2.0828 5.08,2.0828 3.4544,0 5.08,-2.0828 1.6764,-2.1336 1.6764,-5.334 v -21.6916 h 8.6868 z"
               id="path4561-8"
               style="fill:#0054a0;fill-opacity:1" />
          </g>
          <g
             aria-label="U"
             id="text4559-6-7"
             style="font-size:50.8px;font-family:'Avenir Next Cyr';-inkscape-font-specification:'Avenir Next Cyr';fill:#0054a0;fill-opacity:1;stroke-width:0.264583"
             inkscape:label="U"
             transform="rotate(180,146.3217,77.345683)">
            <path
               id="path4561-2-9"
               style="fill:#0054a0;fill-opacity:1"
               d="m 124.10898,107.04104 c 4.6736,0 8.41578,-1.33772 11.22671,-4.01319 2.8448,-2.67546 4.26692,-6.180705 4.26692,-10.515634 V 76.135437 a 7.6552792,7.6552792 0 0 1 -4.30516,1.329118 7.6552792,7.6552792 0 0 1 -4.38165,-1.377693 v 15.714286 c 0,2.133598 -0.55878,3.911643 -1.67638,5.334041 -1.08373,1.388532 -2.77686,2.08256 -5.07979,2.08256 -2.26907,0 -3.96271,-0.694028 -5.08031,-2.08256 -1.1176,-1.422398 -1.67639,-3.200443 -1.67639,-5.334041 V 70.109449 h -8.63564 v 22.402767 c 0,4.368795 1.38857,7.890814 4.16563,10.566284 2.77707,2.64159 6.50247,3.96254 11.17606,3.96254 z" />
          </g>
        </g>
        <g
           id="g5375"
           inkscape:label="CENTER">
          <path
             style="opacity:0.86;fill:#0054a0;fill-opacity:1;stroke-width:0.264583"
             id="path4785"
             sodipodi:type="arc"
             sodipodi:cx="157.26598"
             sodipodi:cy="85.023125"
             sodipodi:rx="3.3259466"
             sodipodi:ry="3.3259466"
             sodipodi:start="0"
             sodipodi:end="6.2821927"
             sodipodi:open="true"
             sodipodi:arc-type="arc"
             d="m 160.59192,85.023125 a 3.3259466,3.3259466 0 0 1 -3.32512,3.325946 3.3259466,3.3259466 0 0 1 -3.32677,-3.324296 3.3259466,3.3259466 0 0 1 3.32347,-3.327596 3.3259466,3.3259466 0 0 1 3.32842,3.322644"
             inkscape:label="CENTER" />
          <text
             xml:space="preserve"
             style="font-style:normal;font-variant:normal;font-weight:normal;font-stretch:normal;font-size:4.93889px;font-family:'Avenir Next Cyr';-inkscape-font-specification:'Avenir Next Cyr';opacity:0.86;fill:#0054a0;fill-opacity:1;stroke-width:0.264583"
             x="171.62456"
             y="103.42828"
             id="text5445"
             inkscape:label="Imagine Beyond"><tspan
               sodipodi:role="line"
               id="tspan5443"
               style="font-size:4.93889px;stroke-width:0.264583"
               x="171.62456"
               y="103.42828">Imagine Beyond</tspan></text>
        </g>
      </g>
    </g>
  </g>
  <g
     inkscape:label="symbol only"
     inkscape:groupmode="layer"
     id="g5571"
     style="display:none"
     transform="matrix(2.6587485,0,0,2.6587485,-246.32415,-84.736046)">
    <g
       id="g5569"
       transform="translate(0,-12.419826)">
      <g
         id="g5567"
         inkscape:label="symbol"
         style="display:inline"
         transform="translate(-11.184711)">
        <g
           id="g5547"
           inkscape:label="DOWN"
           transform="translate(0,-2.1166667)">
          <g
             aria-label="U"
             id="g5541"
             style="font-size:50.8px;font-family:'Avenir Next Cyr';-inkscape-font-specification:'Avenir Next Cyr';opacity:1;fill:#1a1a1a;stroke-width:0.264583"
             inkscape:label="U">
            <path
               d="m 139.60274,92.512328 q 0,6.5024 -4.2672,10.515602 -4.2164,4.0132 -11.2268,4.0132 -7.0104,0 -11.176,-3.9624 -4.1656,-4.013202 -4.1656,-10.566402 v -22.4028 h 8.636 v 21.6916 q 0,3.2004 1.6764,5.334 1.6764,2.0828 5.08,2.0828 3.4544,0 5.08,-2.0828 1.6764,-2.1336 1.6764,-5.334 v -21.6916 h 8.6868 z"
               id="path5539" />
          </g>
          <g
             aria-label="U"
             id="g5545"
             style="font-size:50.8px;font-family:'Avenir Next Cyr';-inkscape-font-specification:'Avenir Next Cyr';fill:#1a1a1a;stroke-width:0.264583"
             inkscape:label="U"
             transform="translate(22.143417,12.874158)">
            <path
               id="path5543"
               d="m 108.76694,70.109407 v 22.402767 c 0,4.368796 1.38857,7.891336 4.16564,10.566796 2.77706,2.6416 6.50246,3.96203 11.17606,3.96203 4.67359,0 8.41577,-1.33772 11.2267,-4.01319 2.8448,-2.67546 4.26744,-6.180707 4.26744,-10.515636 V 78.23656 a 7.6552792,7.6552792 0 0 1 -4.29017,1.317749 7.6552792,7.6552792 0 0 1 -4.39664,-1.39113 v 13.637927 c 0,2.133598 -0.55878,3.911643 -1.67638,5.334042 -1.08373,1.388532 -2.77686,2.08256 -5.07979,2.08256 -2.26907,0 -3.96271,-0.694028 -5.08031,-2.08256 -1.1176,-1.422399 -1.67639,-3.200444 -1.67639,-5.334042 V 70.109407 Z" />
          </g>
        </g>
        <g
           id="g5557"
           inkscape:label="UP"
           transform="translate(0,2.1166667)">
          <g
             aria-label="U"
             id="g5551"
             style="font-size:50.8px;font-family:'Avenir Next Cyr';-inkscape-font-specification:'Avenir Next Cyr';fill:#0054a0;fill-opacity:1;stroke-width:0.264583"
             inkscape:label="U"
             transform="rotate(180,157.40662,83.600169)">
            <path
               d="m 139.60274,92.512328 q 0,6.5024 -4.2672,10.515602 -4.2164,4.0132 -11.2268,4.0132 -7.0104,0 -11.176,-3.9624 -4.1656,-4.013202 -4.1656,-10.566402 v -22.4028 h 8.636 v 21.6916 q 0,3.2004 1.6764,5.334 1.6764,2.0828 5.08,2.0828 3.4544,0 5.08,-2.0828 1.6764,-2.1336 1.6764,-5.334 v -21.6916 h 8.6868 z"
               id="path5549"
               style="fill:#0054a0;fill-opacity:1" />
          </g>
          <g
             aria-label="U"
             id="g5555"
             style="font-size:50.8px;font-family:'Avenir Next Cyr';-inkscape-font-specification:'Avenir Next Cyr';fill:#0054a0;fill-opacity:1;stroke-width:0.264583"
             inkscape:label="U"
             transform="rotate(180,146.3217,77.345683)">
            <path
               id="path5553"
               style="fill:#0054a0;fill-opacity:1"
               d="m 124.10898,107.04104 c 4.6736,0 8.41578,-1.33772 11.22671,-4.01319 2.8448,-2.67546 4.26692,-6.180705 4.26692,-10.515634 V 76.135437 a 7.6552792,7.6552792 0 0 1 -4.30516,1.329118 7.6552792,7.6552792 0 0 1 -4.38165,-1.377693 v 15.714286 c 0,2.133598 -0.55878,3.911643 -1.67638,5.334041 -1.08373,1.388532 -2.77686,2.08256 -5.07979,2.08256 -2.26907,0 -3.96271,-0.694028 -5.08031,-2.08256 -1.1176,-1.422398 -1.67639,-3.200443 -1.67639,-5.334041 V 70.109449 h -8.63564 v 22.402767 c 0,4.368795 1.38857,7.890814 4.16563,10.566284 2.77707,2.64159 6.50247,3.96254 11.17606,3.96254 z" />
          </g>
        </g>
        <g
           id="g5565"
           inkscape:label="CENTER">
          <path
             style="opacity:0.86;fill:#0054a0;fill-opacity:1;stroke-width:0.264583"
             id="path5559"
             sodipodi:type="arc"
             sodipodi:cx="157.26598"
             sodipodi:cy="85.023125"
             sodipodi:rx="3.3259466"
             sodipodi:ry="3.3259466"
             sodipodi:start="0"
             sodipodi:end="6.2821927"
             sodipodi:open="true"
             sodipodi:arc-type="arc"
             d="m 160.59192,85.023125 a 3.3259466,3.3259466 0 0 1 -3.32512,3.325946 3.3259466,3.3259466 0 0 1 -3.32677,-3.324296 3.3259466,3.3259466 0 0 1 3.32347,-3.327596 3.3259466,3.3259466 0 0 1 3.32842,3.322644"
             inkscape:label="CENTER" />
          <text
             xml:space="preserve"
             style="font-style:normal;font-variant:normal;font-weight:normal;font-stretch:normal;font-size:4.93889px;font-family:'Avenir Next Cyr';-inkscape-font-specification:'Avenir Next Cyr';opacity:0.86;fill:#0054a0;fill-opacity:1;stroke-width:0.264583"
             x="171.62456"
             y="103.42828"
             id="text5563"
             inkscape:label="Imagine Beyond"><tspan
               sodipodi:role="line"
               id="tspan5561"
               style="font-size:4.93889px;stroke-width:0.264583"
               x="171.62456"
               y="103.42828">Imagine Beyond</tspan></text>
        </g>
      </g>
    </g>
  </g>
  <g
     inkscape:label="symbol on side"
     inkscape:groupmode="layer"
     id="g5698"
     style="display:inline">
    <g
       aria-label="NATEC"
       id="g5664"
       style="font-size:66.7633px;font-family:'Lohit Tamil';-inkscape-font-specification:'Lohit Tamil';display:inline;fill:#1a1a1a;stroke-width:0.347725"
       inkscape:label="natec"
       transform="matrix(0.76315999,0,0,0.76315999,90.551366,-17.235297)">
      <g
         id="g5662"
         inkscape:label="text"
         style="display:inline">
        <path
           d="M 82.337527,183.80415 H 69.385448 l -19.02754,-30.9114 h -0.20029 l 0.267053,30.9114 H 39.341963 v -47.26841 h 13.018844 l 18.960776,30.84464 h 0.20029 L 71.25482,136.53574 h 11.082707 z"
           style="font-family:'Avenir Next Cyr';-inkscape-font-specification:'Avenir Next Cyr'"
           id="path5652" />
        <path
           d="m 136.81644,183.80415 h -12.68503 l -3.67198,-9.28009 h -18.29314 l -3.471695,9.28009 H 86.276621 l 19.828699,-47.26841 h 11.08271 z m -19.49489,-18.42667 -5.87517,-16.22348 -6.00869,16.22348 z"
           style="font-family:'Avenir Next Cyr';-inkscape-font-specification:'Avenir Next Cyr'"
           id="path5654" />
        <path
           d="M 170.33166,146.28318 H 156.979 v 37.52097 h -11.41653 v -37.52097 h -13.35266 v -9.74744 h 38.12185 z"
           style="font-family:'Avenir Next Cyr';-inkscape-font-specification:'Avenir Next Cyr'"
           id="path5656" />
        <path
           d="m 208.52022,183.80415 h -32.98107 v -47.26841 h 31.77933 v 9.68068 H 186.5551 v 8.87952 h 19.62841 v 9.14657 H 186.5551 v 9.8142 h 21.96512 z"
           style="font-family:'Avenir Next Cyr';-inkscape-font-specification:'Avenir Next Cyr'"
           id="path5658" />
        <path
           d="m 257.65803,177.26135 q -6.74309,7.81131 -18.3599,7.81131 -11.01595,0 -18.22639,-6.94339 -7.21043,-7.01014 -7.21043,-18.02609 0,-11.14947 7.2772,-17.95932 7.34396,-6.87662 18.35991,-6.87662 5.14077,0 9.94773,1.86937 4.87372,1.80261 7.74454,5.07401 l -7.74454,7.74454 q -1.53556,-2.13642 -4.13933,-3.20464 -2.537,-1.13497 -5.40783,-1.13497 -5.94193,0 -9.8142,4.13932 -3.80551,4.07256 -3.80551,10.34831 0,6.40928 3.73875,10.48184 3.73874,4.0058 9.68068,4.0058 6.60956,0 10.01449,-4.80696 z"
           style="font-family:'Avenir Next Cyr';-inkscape-font-specification:'Avenir Next Cyr';display:inline"
           id="path5660" />
      </g>
    </g>
    <g
       id="g5694"
       inkscape:label="symbol"
       style="display:inline"
       transform="matrix(0.95129159,0,0,0.95129159,-87.01809,25.298182)">
      <g
         id="g5674"
         inkscape:label="DOWN"
         transform="translate(0,-2.1166667)">
        <g
           aria-label="U"
           id="g5668"
           style="font-size:50.8px;font-family:'Avenir Next Cyr';-inkscape-font-specification:'Avenir Next Cyr';opacity:1;fill:#1a1a1a;stroke-width:0.264583"
           inkscape:label="U">
          <path
             d="m 139.60274,92.512328 q 0,6.5024 -4.2672,10.515602 -4.2164,4.0132 -11.2268,4.0132 -7.0104,0 -11.176,-3.9624 -4.1656,-4.013202 -4.1656,-10.566402 v -22.4028 h 8.636 v 21.6916 q 0,3.2004 1.6764,5.334 1.6764,2.0828 5.08,2.0828 3.4544,0 5.08,-2.0828 1.6764,-2.1336 1.6764,-5.334 v -21.6916 h 8.6868 z"
             id="path5666" />
        </g>
        <g
           aria-label="U"
           id="g5672"
           style="font-size:50.8px;font-family:'Avenir Next Cyr';-inkscape-font-specification:'Avenir Next Cyr';fill:#1a1a1a;stroke-width:0.264583"
           inkscape:label="U"
           transform="translate(22.143417,12.874158)">
          <path
             id="path5670"
             d="m 108.76694,70.109407 v 22.402767 c 0,4.368796 1.38857,7.891336 4.16564,10.566796 2.77706,2.6416 6.50246,3.96203 11.17606,3.96203 4.67359,0 8.41577,-1.33772 11.2267,-4.01319 2.8448,-2.67546 4.26744,-6.180707 4.26744,-10.515636 V 78.23656 a 7.6552792,7.6552792 0 0 1 -4.29017,1.317749 7.6552792,7.6552792 0 0 1 -4.39664,-1.39113 v 13.637927 c 0,2.133598 -0.55878,3.911643 -1.67638,5.334042 -1.08373,1.388532 -2.77686,2.08256 -5.07979,2.08256 -2.26907,0 -3.96271,-0.694028 -5.08031,-2.08256 -1.1176,-1.422399 -1.67639,-3.200444 -1.67639,-5.334042 V 70.109407 Z" />
        </g>
      </g>
      <g
         id="g5684"
         inkscape:label="UP"
         transform="translate(0,2.1166667)">
        <g
           aria-label="U"
           id="g5678"
           style="font-size:50.8px;font-family:'Avenir Next Cyr';-inkscape-font-specification:'Avenir Next Cyr';fill:#0054a0;fill-opacity:1;stroke-width:0.264583"
           inkscape:label="U"
           transform="rotate(180,157.40662,83.600169)">
          <path
             d="m 139.60274,92.512328 q 0,6.5024 -4.2672,10.515602 -4.2164,4.0132 -11.2268,4.0132 -7.0104,0 -11.176,-3.9624 -4.1656,-4.013202 -4.1656,-10.566402 v -22.4028 h 8.636 v 21.6916 q 0,3.2004 1.6764,5.334 1.6764,2.0828 5.08,2.0828 3.4544,0 5.08,-2.0828 1.6764,-2.1336 1.6764,-5.334 v -21.6916 h 8.6868 z"
             id="path5676"
             style="fill:#0054a0;fill-opacity:1" />
        </g>
        <g
           aria-label="U"
           id="g5682"
           style="font-size:50.8px;font-family:'Avenir Next Cyr';-inkscape-font-specification:'Avenir Next Cyr';fill:#0054a0;fill-opacity:1;stroke-width:0.264583"
           inkscape:label="U"
           transform="rotate(180,146.3217,77.345683)">
          <path
             id="path5680"
             style="fill:#0054a0;fill-opacity:1"
             d="m 124.10898,107.04104 c 4.6736,0 8.41578,-1.33772 11.22671,-4.01319 2.8448,-2.67546 4.26692,-6.180705 4.26692,-10.515634 V 76.135437 a 7.6552792,7.6552792 0 0 1 -4.30516,1.329118 7.6552792,7.6552792 0 0 1 -4.38165,-1.377693 v 15.714286 c 0,2.133598 -0.55878,3.911643 -1.67638,5.334041 -1.08373,1.388532 -2.77686,2.08256 -5.07979,2.08256 -2.26907,0 -3.96271,-0.694028 -5.08031,-2.08256 -1.1176,-1.422398 -1.67639,-3.200443 -1.67639,-5.334041 V 70.109449 h -8.63564 v 22.402767 c 0,4.368795 1.38857,7.890814 4.16563,10.566284 2.77707,2.64159 6.50247,3.96254 11.17606,3.96254 z" />
        </g>
      </g>
      <g
         id="g5692"
         inkscape:label="CENTER">
        <path
           style="opacity:0.86;fill:#0054a0;fill-opacity:1;stroke-width:0.264583"
           id="path5686"
           sodipodi:type="arc"
           sodipodi:cx="157.26598"
           sodipodi:cy="85.023125"
           sodipodi:rx="3.3259466"
           sodipodi:ry="3.3259466"
           sodipodi:start="0"
           sodipodi:end="6.2821927"
           sodipodi:open="true"
           sodipodi:arc-type="arc"
           d="m 160.59192,85.023125 a 3.3259466,3.3259466 0 0 1 -3.32512,3.325946 3.3259466,3.3259466 0 0 1 -3.32677,-3.324296 3.3259466,3.3259466 0 0 1 3.32347,-3.327596 3.3259466,3.3259466 0 0 1 3.32842,3.322644"
           inkscape:label="CENTER" />
        <text
           xml:space="preserve"
           style="font-style:normal;font-variant:normal;font-weight:normal;font-stretch:normal;font-size:4.93889px;font-family:'Avenir Next Cyr';-inkscape-font-specification:'Avenir Next Cyr';opacity:0.86;fill:#0054a0;fill-opacity:1;stroke-width:0.264583"
           x="171.62456"
           y="103.42828"
           id="text5690"
           inkscape:label="Imagine Beyond"><tspan
             sodipodi:role="line"
             id="tspan5688"
             style="font-size:4.93889px;stroke-width:0.264583"
             x="171.62456"
             y="103.42828">Imagine Beyond</tspan></text>
      </g>
    </g>
  </g>
</svg>
